# xmcd CD database file
#
# Track frame offsets:
#	150
#	14291
#	30127
#	42827
#	56999
#	76350
#	92470
#	110647
#	123887
#	136248
#
# Disc length: 1978 seconds
#
# Revision: 0
# Processed by: cddbd v1.5.2PL0 Copyright (c) Steve Scherf et al.
# Submitted via: CDex 1.51
#
DISCID=7307b80a
DTITLE=Aker Bilk - Best of Aker Bilk Vol 2
DYEAR=1900
DGENRE=Jazz
TTITLE0=Just the Way You Are
TTITLE1=Touch Me In The Morning
TTITLE2=Yesterday
TTITLE3=Evergreen
TTITLE4=Chariots of Fire
TTITLE5=For the Good Times
TTITLE6=Little Green Apples
TTITLE7=Norwegian Wood
TTITLE8=Love Letters
TTITLE9=Goodnight, Tonight
EXTD=
EXTT0=
EXTT1=
EXTT2=
EXTT3=
EXTT4=
EXTT5=
EXTT6=
EXTT7=
EXTT8=
EXTT9=
PLAYORDER=
